# xmcd
#
# Track frame offsets:
# 150
# 11797
# 25635
# 35540
# 48920
# 61102
# 73190
# 86245
# 99720
# 115725
#
# Disc length: 1772 seconds
#
# Revision: 1
# Processed by: cddbd v1.5.1PL0 Copyright (c) Steve Scherf et al.
# Submitted via: Easy CD Ripper v2.27
#
DISCID=7f06ea0a
DTITLE=Ray Charles and Friends - Super Hits
DYEAR=1998
DGENRE=Country
TTITLE0=Two Old Cats Like Us
TTITLE1=This Old Heart (Is Gonna Rise Again)
TTITLE2=We Didn't See A Thing
TTITLE3=Who Cares
TTITLE4=Rock and Roll Shoes
TTITLE5=Friendship
TTITLE6=It Ain't Gonna Worry My Mind
TTITLE7=Little Hotel Room
TTITLE8=Crazy Old Soldier
TTITLE9=Seven Spanish Angels
EXTD=twuni
EXTT0=
EXTT1=
EXTT2=
EXTT3=
EXTT4=
EXTT5=
EXTT6=
EXTT7=
EXTT8=
EXTT9=
PLAYORDER=
